MoBL_ARMS_module2_4_elbow_flexion_states	
version=1	
nRows=336	
nColumns=2	
inDegrees=yes	
	
# SIMM Motion File Header:	
name MoBL_ARMS_module2_4_elbow_flexion_states	
datacolumns 2	
datarows 336	
otherdata 1	
range 2.505838459 3.315671798	
endheader	
time	elbow_flexion
2.505838459	16.5663235
2.508255872	16.56732304
2.510673285	16.56853527
2.513090698	16.56995872
2.515508111	16.57159194
2.517925524	16.5734334
2.520342937	16.57548157
2.52276035	16.57773487
2.525177763	16.58019169
2.527595176	16.5828504
2.530012589	16.58570933
2.532430002	16.58876679
2.534847415	16.59202104
2.537264827	16.59547033
2.53968224	16.59911287
2.542099653	16.60294686
2.544517066	16.60697046
2.546934479	16.61118179
2.549351892	16.61557896
2.551769305	16.62016006
2.554186718	16.62492313
2.556604131	16.62986621
2.559021544	16.63498731
2.561438957	16.64028439
2.56385637	16.64575543
2.566273783	16.65139835
2.568691196	16.65721107
2.571108609	16.66319147
2.573526022	16.66933742
2.575943435	16.67564678
2.578360848	16.68211737
2.580778261	16.68874699
2.583195674	16.69553342
2.585613086	16.70247445
2.588030499	16.70956782
2.590447912	16.71681126
2.592865325	16.72420248
2.595282738	16.73173918
2.597700151	16.73941905
2.600117564	16.74723975
2.602534977	16.75519892
2.60495239	16.76329419
2.607369803	16.77152316
2.609787216	16.77988345
2.612204629	16.78837266
2.614622042	16.79698839
2.617039455	16.80572821
2.619456868	16.81458966
2.621874281	16.8235703
2.624291694	16.83266766
2.626709107	16.84187928
2.62912652	16.85120265
2.631543933	16.86063531
2.633961345	16.87017473
2.636378758	16.87981841
2.638796171	16.88956384
2.641213584	16.89940849
2.643630997	16.90934982
2.64604841	16.91938532
2.648465823	16.92951242
2.650883236	16.9397286
2.653300649	16.95003128
2.655718062	16.96041793
2.658135475	16.97088599
2.660552888	16.98143288
2.662970301	16.99205606
2.665387714	17.00275295
2.667805127	17.01352099
2.67022254	17.02435762
2.672639953	17.03526026
2.675057366	17.04622635
2.677474779	17.05725332
2.679892192	17.06833861
2.682309605	17.07947965
2.684727017	17.09067389
2.68714443	17.10191877
2.689561843	17.11321173
2.691979256	17.12455021
2.694396669	17.13593169
2.696814082	17.1473536
2.699231495	17.15881342
2.701648908	17.17030861
2.704066321	17.18183664
2.706483734	17.19339501
2.708901147	17.20498119
2.71131856	17.21659269
2.713735973	17.228227
2.716153386	17.23988164
2.718570799	17.25155413
2.720988212	17.263242
2.723405625	17.27494279
2.725823038	17.28665405
2.728240451	17.29837334
2.730657864	17.31009824
2.733075276	17.32182632
2.735492689	17.33355518
2.737910102	17.34528243
2.740327515	17.35700569
2.742744928	17.3687226
2.745162341	17.3804308
2.747579754	17.39212796
2.749997167	17.40381176
2.75241458	17.41547987
2.754831993	17.42713002
2.757249406	17.43875992
2.759666819	17.45036731
2.762084232	17.46194995
2.764501645	17.47350561
2.766919058	17.48503207
2.769336471	17.49652714
2.771753884	17.50798865
2.774171297	17.51941444
2.77658871	17.53080237
2.779006123	17.54215032
2.781423535	17.55345618
2.783840948	17.56471789
2.786258361	17.57593338
2.788675774	17.5871006
2.791093187	17.59821754
2.7935106	17.60928219
2.795928013	17.62029259
2.798345426	17.63124677
2.800762839	17.6421428
2.803180252	17.65297877
2.805597665	17.66375278
2.808015078	17.67446298
2.810432491	17.68510751
2.812849904	17.69568456
2.815267317	17.70619232
2.81768473	17.71662904
2.820102143	17.72699294
2.822519556	17.73728232
2.824936969	17.74749547
2.827354382	17.75763072
2.829771795	17.7676864
2.832189207	17.77766091
2.83460662	17.78755264
2.837024033	17.79736
2.839441446	17.80708147
2.841858859	17.81671551
2.844276272	17.82626062
2.846693685	17.83571534
2.849111098	17.84507822
2.851528511	17.85434785
2.853945924	17.86352284
2.856363337	17.87260182
2.85878075	17.88158346
2.861198163	17.89046646
2.863615576	17.89924952
2.866032989	17.9079314
2.868450402	17.91651088
2.870867815	17.92498675
2.873285228	17.93335785
2.875702641	17.94162303
2.878120054	17.94978119
2.880537466	17.95783124
2.882954879	17.96577212
2.885372292	17.9736028
2.887789705	17.98132229
2.890207118	17.98892962
2.892624531	17.99642384
2.895041944	18.00380404
2.897459357	18.01106934
2.89987677	18.01821887
2.902294183	18.02525182
2.904711596	18.03216739
2.907129009	18.03896481
2.909546422	18.04564333
2.911963835	18.05220224
2.914381248	18.05864087
2.916798661	18.06495856
2.919216074	18.07115469
2.921633487	18.07722865
2.9240509	18.08317989
2.926468313	18.08900786
2.928885725	18.09471205
2.931303138	18.10029199
2.933720551	18.10574723
2.936137964	18.11107733
2.938555377	18.11628191
2.94097279	18.12136059
2.943390203	18.12631305
2.945807616	18.13113897
2.948225029	18.13583806
2.950642442	18.14041009
2.953059855	18.14485481
2.955477268	18.14917204
2.957894681	18.15336161
2.960312094	18.15742336
2.962729507	18.1613572
2.96514692	18.16516303
2.967564333	18.1688408
2.969981746	18.17239047
2.972399159	18.17581204
2.974816572	18.17910552
2.977233985	18.18227098
2.979651397	18.18530848
2.98206881	18.18821812
2.984486223	18.19100004
2.986903636	18.19365439
2.989321049	18.19618135
2.991738462	18.19858112
2.994155875	18.20085394
2.996573288	18.20300007
2.998990701	18.20501978
3.001408114	18.20691338
3.003825527	18.20868121
3.00624294	18.21032362
3.008660353	18.211841
3.011077766	18.21323374
3.013495179	18.21450228
3.015912592	18.21564706
3.018330005	18.21666857
3.020747418	18.2175673
3.023164831	18.21834378
3.025582244	18.21899855
3.027999656	18.21953218
3.030417069	18.21994526
3.032834482	18.22023839
3.035251895	18.22041222
3.037669308	18.22046739
3.040086721	18.22040458
3.042504134	18.2202245
3.044921547	18.21992784
3.04733896	18.21951537
3.049756373	18.21898782
3.052173786	18.21834599
3.054591199	18.21759066
3.057008612	18.21672265
3.059426025	18.2157428
3.061843438	18.21465197
3.064260851	18.21345102
3.066678264	18.21214084
3.069095677	18.21072234
3.07151309	18.20919646
3.073930503	18.20756413
3.076347915	18.2058263
3.078765328	18.20398397
3.081182741	18.20203811
3.083600154	18.19998975
3.086017567	18.1978399
3.08843498	18.1955896
3.090852393	18.1932399
3.093269806	18.19079188
3.095687219	18.18824662
3.098104632	18.18560522
3.100522045	18.18286879
3.102939458	18.18003845
3.105356871	18.17711534
3.107774284	18.17410061
3.110191697	18.17099543
3.11260911	18.16780096
3.115026523	18.1645184
3.117443936	18.16114895
3.119861349	18.15769381
3.122278762	18.15415421
3.124696174	18.15053137
3.127113587	18.14682654
3.129531	18.14304097
3.131948413	18.13917591
3.134365826	18.13523265
3.136783239	18.13121245
3.139200652	18.1271166
3.141618065	18.1229464
3.144035478	18.11870316
3.146452891	18.11438817
3.148870304	18.11000277
3.151287717	18.10554827
3.15370513	18.101026
3.156122543	18.09643731
3.158539956	18.09178354
3.160957369	18.08706603
3.163374782	18.08228615
3.165792195	18.07744524
3.168209608	18.07254468
3.170627021	18.06758583
3.173044434	18.06257006
3.175461846	18.05749875
3.177879259	18.05237329
3.180296672	18.04719504
3.182714085	18.04196541
3.185131498	18.03668577
3.187548911	18.03135751
3.189966324	18.02598203
3.192383737	18.02056072
3.19480115	18.01509497
3.197218563	18.00958618
3.199635976	18.00403575
3.202053389	17.99844506
3.204470802	17.99281553
3.206888215	17.98714853
3.209305628	17.98144548
3.211723041	17.97570775
3.214140454	17.96993675
3.216557867	17.96413387
3.21897528	17.9583005
3.221392693	17.95243802
3.223810105	17.94654782
3.226227518	17.94063129
3.228644931	17.9346898
3.231062344	17.92872474
3.233479757	17.92273747
3.23589717	17.91672936
3.238314583	17.91070179
3.240731996	17.90465611
3.243149409	17.89859368
3.245566822	17.89251586
3.247984235	17.88642399
3.250401648	17.88031942
3.252819061	17.87420348
3.255236474	17.8680775
3.257653887	17.86194282
3.2600713	17.85580074
3.262488713	17.84965259
3.264906126	17.84349967
3.267323539	17.83734327
3.269740952	17.8311847
3.272158364	17.82502523
3.274575777	17.81886615
3.27699319	17.81270873
3.279410603	17.80655422
3.281828016	17.80040388
3.284245429	17.79425895
3.286662842	17.78812068
3.289080255	17.78199028
3.291497668	17.77586899
3.293915081	17.769758
3.296332494	17.76365852
3.298749907	17.75757173
3.30116732	17.75149883
3.303584733	17.74544098
3.306002146	17.73939934
3.308419559	17.73337505
3.310836972	17.72736927
3.313254385	17.72138312
3.315671798	17.71541772
